<svg width="256" height="256" viewBox="0 0 256 256" fill="none" xmlns="http://www.w3.org/2000/svg">
<g clip-path="url(#clip0_5982_2)">
<path d="M128 256C198.692 256 256 198.692 256 128C256 57.3075 198.692 0 128 0C57.3075 0 0 57.3075 0 128C0 198.692 57.3075 256 128 256Z" fill="#FF4500"/>
<path d="M200.176 180.83L190.865 181.049L187.49 177.945C198.724 164.237 205.267 146.63 204.82 127.655C203.823 85.3444 168.719 51.8556 126.408 52.852C84.0973 53.8485 50.6085 88.9528 51.605 131.264C52.6015 173.574 87.7057 207.063 130.017 206.067C148.992 205.62 166.271 198.255 179.434 186.389L182.694 189.614L182.914 198.925L243.227 256.348L260.375 238.373L200.176 180.83ZM129.461 182.495C100.115 183.186 75.8676 160.055 75.1765 130.708C74.4853 101.362 97.6168 77.1147 126.963 76.4235C156.31 75.7324 180.557 98.8638 181.248 128.21C181.939 157.557 158.808 181.804 129.461 182.495Z" fill="white"/>
<path d="M109.182 152V117.091H121.364V123.727H121.727C122.364 121.273 123.371 119.477 124.75 118.341C126.144 117.205 127.773 116.636 129.636 116.636C130.182 116.636 130.72 116.682 131.25 116.773C131.795 116.848 132.318 116.962 132.818 117.114V127.818C132.197 127.606 131.432 127.447 130.523 127.341C129.614 127.235 128.833 127.182 128.182 127.182C126.955 127.182 125.848 127.462 124.864 128.023C123.894 128.568 123.129 129.341 122.568 130.341C122.008 131.326 121.727 132.485 121.727 133.818V152H109.182ZM157.938 103.273L142.938 159H132.301L147.301 103.273H157.938Z" fill="white"/>
</g>
<defs>
<clipPath id="clip0_5982_2">
<rect width="256" height="256" fill="white"/>
</clipPath>
</defs>
</svg>
